<?xml version="1.0" encoding="utf-8"?>
<!-- Generator: Adobe Illustrator 16.0.4, SVG Export Plug-In . SVG Version: 6.00 Build 0)  -->
<!DOCTYPE svg PUBLIC "-//W3C//DTD SVG 1.1//EN" "http://www.w3.org/Graphics/SVG/1.1/DTD/svg11.dtd">
<svg version="1.1" id="Layer_1" xmlns="http://www.w3.org/2000/svg" xmlns:xlink="http://www.w3.org/1999/xlink" x="0px" y="0px"
	 width="300px" height="44px" viewBox="0 0 300 44" enable-background="new 0 0 300 44" xml:space="preserve">
<g>
	<g>
		<path fill="#8E908F" d="M70.249,25.505c-2.528,0-4.037-1.396-4.037-3.731v-5.738h2.389v5.709c0,1.152,0.57,1.76,1.648,1.76
			c1.079,0,1.649-0.607,1.649-1.76v-5.709h2.388v5.738C74.287,24.11,72.777,25.505,70.249,25.505z"/>
		<path fill="#8E908F" d="M80.464,25.505c-2.174,0-3.318-1.019-3.826-1.668l1.723-1.293c0.396,0.48,0.98,1.004,1.991,1.004
			c0.844,0,1.272-0.278,1.272-0.826c0-0.46-0.361-0.671-0.984-0.879l-1.114-0.376c-1.552-0.517-2.305-1.428-2.305-2.786
			c0-1.903,1.587-2.756,3.159-2.756c1.709,0,2.643,0.629,3.133,1.179l-1.351,1.415c-0.453-0.443-0.977-0.65-1.644-0.65
			c-0.732,0-0.994,0.377-0.994,0.729c0,0.437,0.288,0.623,0.719,0.766l1.254,0.418c1.766,0.585,2.486,1.396,2.486,2.802
			C83.985,24.466,82.735,25.505,80.464,25.505z"/>
		<path fill="#8E908F" d="M86.767,25.366v-9.33h6.5v1.985h-4.111v1.708h3.429v1.873h-3.429v1.778h4.306v1.985H86.767z"/>
		<polygon fill="#8E908F" points="96.619,25.366 96.619,16.036 103.119,16.036 103.119,18.021 99.008,18.021 99.008,19.729 
			102.436,19.729 102.436,21.603 99.008,21.603 99.008,23.38 103.314,23.38 103.314,25.366 		"/>
		<path fill="#8E908F" d="M114.759,25.492c-2.725,0-4.86-2.104-4.86-4.791c0-2.678,2.074-4.776,4.721-4.776
			c1.774,0,3.082,0.636,3.994,1.941l-1.786,1.212c-0.333-0.49-0.918-1.099-2.167-1.099c-1.365,0-2.318,1.12-2.318,2.722
			c0,1.611,0.987,2.735,2.401,2.735c1.341,0,1.915-0.668,2.257-1.278l1.824,1.172C117.918,24.824,116.66,25.492,114.759,25.492z"/>
		<path fill="#8E908F" d="M152.222,25.366v-9.33h3.592c2.824,0,4.721,1.875,4.721,4.665c0,2.791-1.896,4.665-4.721,4.665H152.222z
			 M154.611,23.367h0.924c1.553,0,2.555-1.046,2.555-2.666c0-1.619-1.002-2.666-2.555-2.666h-0.924V23.367z"/>
		<rect x="163.205" y="16.036" fill="#8E908F" width="2.389" height="9.33"/>
		<polygon fill="#8E908F" points="168.778,25.366 168.778,16.036 175.278,16.036 175.278,18.021 171.167,18.021 171.167,19.729 
			174.595,19.729 174.595,21.603 171.167,21.603 171.167,23.38 175.472,23.38 175.472,25.366 		"/>
		<path fill="#8E908F" d="M193.574,25.364v-9.331h3.592c2.823,0,4.72,1.875,4.72,4.665c0,2.79-1.896,4.666-4.72,4.666H193.574z
			 M195.962,23.365h0.924c1.553,0,2.555-1.047,2.555-2.667c0-1.619-1.002-2.666-2.555-2.666h-0.924V23.365z"/>
		<polygon fill="#8E908F" points="204.555,25.364 204.555,16.033 211.054,16.033 211.054,18.018 206.944,18.018 206.944,19.727 
			210.373,19.727 210.373,21.6 206.944,21.6 206.944,23.378 211.25,23.378 211.25,25.364 		"/>
		<polygon fill="#8E908F" points="218.267,25.364 218.267,16.033 220.655,16.033 220.655,23.378 224.682,23.378 224.682,25.364 		
			"/>
		<path fill="#8E908F" d="M225.401,19.484l0.47-1.331l-0.072-0.023c-0.439-0.143-0.713-0.547-0.713-1.055
			c0-0.658,0.514-1.155,1.194-1.155c0.71,0,1.245,0.497,1.245,1.155c0,0.411-0.156,0.82-0.49,1.289l-0.793,1.12H225.401z"/>
		<polygon fill="#8E908F" points="235.933,25.364 235.933,21.655 232.496,21.655 232.496,25.364 230.108,25.364 230.108,16.033 
			232.496,16.033 232.496,19.671 235.933,19.671 235.933,16.033 238.322,16.033 238.322,25.364 		"/>
		<rect x="241.341" y="16.033" fill="#8E908F" width="2.388" height="9.331"/>
		<path fill="#8E908F" d="M250.06,25.501c-2.176,0-3.318-1.018-3.826-1.667l1.724-1.292c0.396,0.479,0.981,1.002,1.991,1.002
			c0.845,0,1.273-0.277,1.273-0.824c0-0.462-0.361-0.672-0.984-0.879l-1.115-0.376c-1.551-0.518-2.305-1.43-2.305-2.787
			c0-1.904,1.587-2.756,3.16-2.756c1.708,0,2.643,0.629,3.132,1.178l-1.35,1.416c-0.453-0.443-0.978-0.65-1.644-0.65
			c-0.733,0-0.994,0.376-0.994,0.728c0,0.437,0.287,0.622,0.719,0.766l1.255,0.418c1.766,0.584,2.485,1.396,2.485,2.801
			C253.582,24.464,252.332,25.501,250.06,25.501z"/>
		<polygon fill="#8E908F" points="257.937,25.364 257.937,18.018 255.429,18.018 255.429,16.033 262.835,16.033 262.835,18.018 
			260.326,18.018 260.326,25.364 		"/>
		<path fill="#8E908F" d="M269.361,25.489c-2.811,0-5.013-2.104-5.013-4.791c0-2.678,2.202-4.776,5.013-4.776
			c2.812,0,5.013,2.099,5.013,4.776C274.374,23.384,272.172,25.489,269.361,25.489z M269.361,17.977
			c-1.536,0-2.568,1.093-2.568,2.721c0,1.638,1.032,2.735,2.568,2.735c1.537,0,2.568-1.098,2.568-2.735
			C271.929,19.07,270.898,17.977,269.361,17.977z"/>
		<rect x="277.099" y="16.033" fill="#8E908F" width="2.389" height="9.331"/>
		<path fill="#8E908F" d="M287.772,25.364l-1.672-2.969h-0.981v2.969h-2.389v-9.331h3.759c2.231,0,3.675,1.29,3.675,3.286
			c0,1.239-0.599,2.195-1.685,2.691l-0.074,0.034l1.941,3.32H287.772z M285.119,20.604h1.244c0.902,0,1.398-0.457,1.398-1.286
			c0-0.83-0.496-1.287-1.398-1.287h-1.244V20.604z"/>
		<polygon fill="#8E908F" points="293.112,25.364 293.112,16.033 299.612,16.033 299.612,18.018 295.5,18.018 295.5,19.727 
			298.929,19.727 298.929,21.6 295.5,21.6 295.5,23.378 299.806,23.378 299.806,25.364 		"/>
		<polygon fill="#8E908F" points="89.585,14.945 90.032,12.915 92.104,12.915 91.045,14.945 		"/>
		<path fill="#8E908F" d="M180.56,20.619v4.748h-2.235v-9.464c0-0.083,0.042-0.151,0.192-0.028l5.957,4.919v-4.761h2.224v9.459
			c0,0.109-0.04,0.15-0.191,0.027L180.56,20.619z"/>
		<path fill="#8E908F" d="M133.152,20.619v4.748h-2.236v-9.463c0-0.083,0.042-0.152,0.192-0.028l5.958,4.918v-4.761h2.224v9.459
			c0,0.109-0.041,0.152-0.192,0.027L133.152,20.619z"/>
		<path fill="#8E908F" d="M53.831,15.93c0.015-0.097,0.069-0.083,0.124-0.014l4.476,5.024l4.406-5.024
			c0.055-0.069,0.11-0.083,0.125,0.014l0.548,9.432h-2.383l-0.219-4.056L58.5,24.085c-0.042,0.041-0.083,0.041-0.124,0l-2.505-2.793
			l-0.219,4.069h-2.369L53.831,15.93z"/>
		<path fill="#8E908F" d="M145.745,15.865c-0.04-0.097-0.121-0.097-0.162,0l-4.499,9.499h2.345l0.462-1.126h3.369l0.487,1.126h2.481
			L145.745,15.865z M144.504,22.574l1.05-2.505l1.066,2.505H144.504z"/>
	</g>
	<g>
		<path fill="#8E908F" d="M57.931,43.653c-2.725,0-4.859-2.104-4.859-4.79c0-2.678,2.073-4.776,4.72-4.776
			c1.774,0,3.082,0.636,3.995,1.942L60,37.241c-0.332-0.49-0.918-1.099-2.167-1.099c-1.365,0-2.317,1.118-2.317,2.721
			c0,1.61,0.987,2.736,2.401,2.736c1.34,0,1.914-0.669,2.256-1.279l1.824,1.172C61.089,42.986,59.832,43.653,57.931,43.653z"/>
		<path fill="#8E908F" d="M95.802,43.517v-9.33h3.592c2.823,0,4.72,1.875,4.72,4.666c0,2.789-1.897,4.664-4.72,4.664H95.802z
			 M98.19,41.518h0.924c1.552,0,2.555-1.046,2.555-2.665c0-1.621-1.003-2.667-2.555-2.667H98.19V41.518z"/>
		<rect x="106.69" y="34.187" fill="#8E908F" width="2.389" height="9.33"/>
		<path fill="#8E908F" d="M155.833,43.667c-2.524,0-4.033-1.396-4.033-3.731v-5.737h2.388v5.71c0,1.152,0.567,1.76,1.646,1.76
			c1.079,0,1.648-0.607,1.648-1.76v-5.71h2.389v5.737C159.871,42.271,158.361,43.667,155.833,43.667z"/>
		<path fill="#8E908F" d="M166.122,43.667c-2.175,0-3.317-1.019-3.825-1.667l1.723-1.293c0.396,0.479,0.981,1.004,1.991,1.004
			c0.845,0,1.271-0.279,1.271-0.827c0-0.461-0.36-0.671-0.984-0.878l-1.114-0.377c-1.551-0.517-2.305-1.43-2.305-2.787
			c0-1.902,1.588-2.755,3.16-2.755c1.709,0,2.644,0.63,3.133,1.179l-1.35,1.414c-0.453-0.442-0.977-0.65-1.644-0.65
			c-0.733,0-0.995,0.377-0.995,0.729c0,0.438,0.287,0.623,0.721,0.767l1.254,0.418c1.766,0.584,2.484,1.396,2.484,2.801
			C169.642,42.628,168.392,43.667,166.122,43.667z"/>
		<polygon fill="#8E908F" points="172.414,43.52 172.414,34.191 178.914,34.191 178.914,36.177 174.804,36.177 174.804,37.884 
			178.232,37.884 178.232,39.757 174.804,39.757 174.804,41.535 179.111,41.535 179.111,43.52 		"/>
		<path fill="#8E908F" d="M185.89,43.667c-2.527,0-4.037-1.396-4.037-3.731v-5.737h2.389v5.71c0,1.152,0.57,1.76,1.648,1.76
			c1.079,0,1.648-0.607,1.648-1.76v-5.71h2.389v5.737C189.927,42.271,188.418,43.667,185.89,43.667z"/>
		<path fill="#8E908F" d="M213.949,43.642c-2.811,0-5.014-2.104-5.014-4.789c0-2.678,2.203-4.777,5.014-4.777s5.013,2.1,5.013,4.777
			C218.961,41.539,216.759,43.642,213.949,43.642z M213.949,36.13c-1.536,0-2.568,1.094-2.568,2.723
			c0,1.636,1.032,2.734,2.568,2.734c1.537,0,2.568-1.099,2.568-2.734C216.517,37.224,215.486,36.13,213.949,36.13z"/>
		<polygon fill="#8E908F" points="221.427,43.517 221.427,34.187 227.717,34.187 227.717,36.173 223.816,36.173 223.816,38.243 
			227.257,38.243 227.257,40.228 223.816,40.228 223.816,43.517 		"/>
		<polygon fill="#8E908F" points="240.519,43.517 240.519,39.81 237.082,39.81 237.082,43.517 234.693,43.517 234.693,34.187 
			237.082,34.187 237.082,37.825 240.519,37.825 240.519,34.187 242.907,34.187 242.907,43.517 		"/>
		<rect x="246.222" y="34.187" fill="#8E908F" width="2.389" height="9.33"/>
		<path fill="#8E908F" d="M255.015,43.656c-2.174,0-3.318-1.018-3.826-1.668l1.725-1.292c0.396,0.479,0.98,1.003,1.99,1.003
			c0.845,0,1.273-0.277,1.273-0.826c0-0.461-0.361-0.671-0.984-0.878l-1.115-0.376c-1.551-0.518-2.305-1.43-2.305-2.787
			c0-1.903,1.586-2.756,3.158-2.756c1.71,0,2.645,0.629,3.134,1.179l-1.351,1.415c-0.451-0.443-0.976-0.65-1.643-0.65
			c-0.732,0-0.994,0.376-0.994,0.729c0,0.438,0.287,0.623,0.719,0.768l1.255,0.418c1.766,0.584,2.485,1.395,2.485,2.801
			C258.537,42.618,257.287,43.656,255.015,43.656z"/>
		<polygon fill="#8E908F" points="262.966,43.517 262.966,36.173 260.458,36.173 260.458,34.187 267.864,34.187 267.864,36.173 
			265.355,36.173 265.355,43.517 		"/>
		<path fill="#8E908F" d="M274.463,43.642c-2.812,0-5.013-2.104-5.013-4.789c0-2.678,2.201-4.777,5.013-4.777s5.013,2.1,5.013,4.777
			C279.476,41.539,277.275,43.642,274.463,43.642z M274.463,36.13c-1.536,0-2.568,1.094-2.568,2.723
			c0,1.636,1.032,2.734,2.568,2.734s2.569-1.099,2.569-2.734C277.033,37.224,276,36.13,274.463,36.13z"/>
		<path fill="#8E908F" d="M287.039,43.517l-1.671-2.969h-0.981v2.969h-2.39v-9.33h3.759c2.232,0,3.675,1.29,3.675,3.285
			c0,1.24-0.599,2.196-1.685,2.691l-0.074,0.035l1.941,3.318H287.039z M284.386,38.758h1.244c0.9,0,1.396-0.456,1.396-1.286
			c0-0.829-0.496-1.286-1.396-1.286h-1.244V38.758z"/>
		<polygon fill="#8E908F" points="294.363,43.517 294.363,39.925 291.071,34.187 293.687,34.187 295.598,37.74 297.509,34.187 
			300,34.187 296.759,39.818 296.751,43.517 		"/>
		<path fill="#8E908F" d="M124.996,38.773v4.748h-2.236v-9.463c0-0.084,0.042-0.152,0.192-0.029l5.958,4.919v-4.761h2.224v9.459
			c0,0.109-0.04,0.15-0.191,0.027L124.996,38.773z"/>
		<path fill="#8E908F" d="M76.676,38.773v4.748h-2.235v-9.463c0-0.084,0.042-0.152,0.192-0.029l5.958,4.919v-4.761h2.224v9.459
			c0,0.109-0.041,0.15-0.192,0.027L76.676,38.773z"/>
		<path fill="#8E908F" d="M139.337,34.09c0.015-0.097,0.069-0.083,0.125-0.015l4.475,5.025l4.406-5.025
			c0.055-0.068,0.109-0.082,0.124,0.015l0.548,9.431h-2.383l-0.219-4.055l-2.407,2.778c-0.042,0.041-0.082,0.041-0.124,0
			l-2.505-2.792l-0.22,4.068h-2.368L139.337,34.09z"/>
		<path fill="#8E908F" d="M193.251,34.09c0.014-0.097,0.069-0.083,0.124-0.015l4.476,5.025l4.406-5.025
			c0.055-0.068,0.109-0.082,0.124,0.015l0.548,9.431h-2.383l-0.219-4.055l-2.407,2.778c-0.042,0.041-0.083,0.041-0.124,0
			l-2.506-2.792l-0.219,4.068h-2.369L193.251,34.09z"/>
		<path fill="#8E908F" d="M68.012,34.023c-0.041-0.098-0.121-0.098-0.162,0l-4.499,9.498h2.345l0.462-1.127h3.368l0.488,1.127h2.48
			L68.012,34.023z M66.771,40.731l1.051-2.505l1.066,2.505H66.771z"/>
		<path fill="#8E908F" d="M89.335,34.023c-0.041-0.098-0.122-0.098-0.162,0l-4.499,9.498h2.345l0.461-1.127h3.369l0.488,1.127h2.481
			L89.335,34.023z M88.094,40.731l1.051-2.505l1.066,2.505H88.094z"/>
		<path fill="#8E908F" d="M116.101,34.023c-0.041-0.098-0.121-0.098-0.162,0l-4.499,9.498h2.345l0.462-1.127h3.369l0.487,1.127
			h2.481L116.101,34.023z M114.86,40.731l1.051-2.505l1.066,2.505H114.86z"/>
	</g>
	<g>
		<path fill="#E1261C" d="M15.15,15.913c4.647,2.996,9.15,7.516,11.487,14.292v13.321h13.321V0.251
			C28.366,2.669,20.386,9.424,15.15,15.913z"/>
		<path fill="#8E908F" d="M26.637,30.206H13.315v13.321H0V10.238C0,10.238,20.583,12.65,26.637,30.206z"/>
	</g>
	<rect x="53.285" y="29.363" fill="#8E908F" width="2.423" height="1.375"/>
	<path fill="#8E908F" d="M124.589,15.865c-0.041-0.097-0.122-0.097-0.162,0l-4.499,9.499h2.346l0.461-1.126h3.369l0.488,1.126h2.481
		L124.589,15.865z M123.348,22.574l1.05-2.505l1.067,2.505H123.348z"/>
</g>
</svg>
