<?xml version="1.0" encoding="utf-8"?>
<!-- Generator: Adobe Illustrator 16.0.4, SVG Export Plug-In . SVG Version: 6.00 Build 0)  -->
<!DOCTYPE svg PUBLIC "-//W3C//DTD SVG 1.1//EN" "http://www.w3.org/Graphics/SVG/1.1/DTD/svg11.dtd">
<svg version="1.1" id="HISTOIRE_-_EN_-_FINAL" xmlns="http://www.w3.org/2000/svg" xmlns:xlink="http://www.w3.org/1999/xlink"
	 x="0px" y="0px" width="300px" height="43.504px" viewBox="0 0 300 43.504" enable-background="new 0 0 300 43.504"
	 xml:space="preserve">
<g>
	<path fill="#E1261C" d="M15.148,15.66c4.646,2.995,9.148,7.514,11.485,14.29v13.319h13.319V0
		C28.361,2.418,20.382,9.172,15.148,15.66z"/>
	<path fill="#8E908F" d="M26.633,29.949h-13.32v13.319H0V9.985C0,9.985,20.58,12.397,26.633,29.949z"/>
</g>
<rect x="53.275" y="29.106" fill="#8E908F" width="2.423" height="1.375"/>
<g>
	<path fill="#8E908F" d="M70.237,43.407c-2.527,0-4.036-1.395-4.036-3.73V33.94h2.388v5.708c0,1.151,0.57,1.76,1.648,1.76
		c1.079,0,1.649-0.608,1.649-1.76V33.94h2.388v5.736C74.274,42.012,72.765,43.407,70.237,43.407z"/>
	<path fill="#8E908F" d="M80.45,43.407c-2.173,0-3.317-1.019-3.825-1.668l1.723-1.292c0.396,0.479,0.98,1.002,1.991,1.002
		c0.844,0,1.272-0.277,1.272-0.826c0-0.459-0.36-0.67-0.984-0.878l-1.114-0.377c-1.551-0.517-2.305-1.427-2.305-2.785
		c0-1.903,1.586-2.755,3.159-2.755c1.708,0,2.643,0.629,3.133,1.178l-1.351,1.415c-0.453-0.443-0.977-0.65-1.643-0.65
		c-0.732,0-0.994,0.376-0.994,0.729c0,0.437,0.288,0.623,0.719,0.766l1.254,0.417c1.766,0.585,2.485,1.396,2.485,2.801
		C83.971,42.369,82.721,43.407,80.45,43.407z"/>
	<path fill="#8E908F" d="M86.752,43.268V33.94h6.498v1.984h-4.11v1.708h3.428v1.873H89.14v1.777h4.305v1.984H86.752z"/>
	<polygon fill="#8E908F" points="96.603,43.268 96.603,33.94 103.101,33.94 103.101,35.924 98.991,35.924 98.991,37.633 
		102.418,37.633 102.418,39.506 98.991,39.506 98.991,41.283 103.296,41.283 103.296,43.268 	"/>
	<path fill="#8E908F" d="M114.74,43.393c-2.725,0-4.859-2.104-4.859-4.789c0-2.678,2.073-4.775,4.72-4.775
		c1.773,0,3.081,0.636,3.994,1.94l-1.786,1.212c-0.333-0.49-0.918-1.099-2.166-1.099c-1.365,0-2.317,1.119-2.317,2.722
		c0,1.61,0.987,2.734,2.4,2.734c1.34,0,1.915-0.668,2.256-1.278l1.824,1.172C117.898,42.726,116.64,43.393,114.74,43.393z"/>
	<path fill="#8E908F" d="M152.197,43.268V33.94h3.591c2.823,0,4.719,1.875,4.719,4.664c0,2.79-1.896,4.664-4.719,4.664H152.197z
		 M154.585,41.269h0.923c1.553,0,2.554-1.046,2.554-2.665s-1.001-2.665-2.554-2.665h-0.923V41.269z"/>
	<rect x="163.176" y="33.94" fill="#8E908F" width="2.388" height="9.327"/>
	<polygon fill="#8E908F" points="168.749,43.268 168.749,33.94 175.248,33.94 175.248,35.924 171.137,35.924 171.137,37.633 
		174.566,37.633 174.566,39.506 171.137,39.506 171.137,41.283 175.443,41.283 175.443,43.268 	"/>
	<path fill="#8E908F" d="M193.541,43.266v-9.329h3.591c2.823,0,4.719,1.875,4.719,4.664c0,2.791-1.896,4.665-4.719,4.665H193.541z
		 M195.929,41.268h0.924c1.552,0,2.554-1.047,2.554-2.667c0-1.619-1.002-2.665-2.554-2.665h-0.924V41.268z"/>
	<polygon fill="#8E908F" points="204.52,43.266 204.52,33.937 211.019,33.937 211.019,35.921 206.909,35.921 206.909,37.63 
		210.336,37.63 210.336,39.503 206.909,39.503 206.909,41.28 211.213,41.28 211.213,43.266 	"/>
	<polygon fill="#8E908F" points="218.229,43.266 218.229,33.937 220.617,33.937 220.617,41.28 224.644,41.28 224.644,43.266 	"/>
	<path fill="#8E908F" d="M225.362,37.387l0.469-1.331l-0.072-0.023c-0.438-0.142-0.712-0.546-0.712-1.054
		c0-0.658,0.513-1.155,1.194-1.155c0.71,0,1.245,0.497,1.245,1.155c0,0.411-0.156,0.819-0.49,1.289l-0.792,1.12H225.362z"/>
	<polygon fill="#8E908F" points="235.893,43.266 235.893,39.559 232.457,39.559 232.457,43.266 230.069,43.266 230.069,33.937 
		232.457,33.937 232.457,37.575 235.893,37.575 235.893,33.937 238.282,33.937 238.282,43.266 	"/>
	<rect x="241.3" y="33.937" fill="#8E908F" width="2.388" height="9.329"/>
	<path fill="#8E908F" d="M250.018,43.404c-2.176,0-3.318-1.018-3.826-1.667l1.723-1.292c0.396,0.479,0.982,1.002,1.992,1.002
		c0.844,0,1.272-0.277,1.272-0.825c0-0.461-0.361-0.671-0.984-0.878l-1.114-0.376c-1.551-0.518-2.305-1.429-2.305-2.787
		c0-1.903,1.587-2.755,3.16-2.755c1.708,0,2.643,0.629,3.131,1.178l-1.349,1.416c-0.453-0.443-0.977-0.65-1.643-0.65
		c-0.733,0-0.994,0.376-0.994,0.729c0,0.437,0.288,0.622,0.719,0.766l1.254,0.419c1.766,0.584,2.485,1.395,2.485,2.8
		C253.539,42.366,252.289,43.404,250.018,43.404z"/>
	<polygon fill="#8E908F" points="257.894,43.266 257.894,35.921 255.386,35.921 255.386,33.937 262.79,33.937 262.79,35.921 
		260.282,35.921 260.282,43.266 	"/>
	<path fill="#8E908F" d="M269.315,43.391c-2.811,0-5.012-2.104-5.012-4.79c0-2.677,2.202-4.775,5.012-4.775s5.011,2.098,5.011,4.775
		C274.327,41.287,272.126,43.391,269.315,43.391z M269.315,35.88c-1.537,0-2.568,1.093-2.568,2.72c0,1.637,1.032,2.735,2.568,2.735
		c1.536,0,2.567-1.098,2.567-2.735C271.883,36.974,270.852,35.88,269.315,35.88z"/>
	<rect x="277.052" y="33.937" fill="#8E908F" width="2.388" height="9.329"/>
	<path fill="#8E908F" d="M287.723,43.266l-1.671-2.968h-0.982v2.968h-2.388v-9.329h3.758c2.231,0,3.674,1.29,3.674,3.285
		c0,1.239-0.598,2.195-1.684,2.691l-0.074,0.034l1.941,3.318H287.723z M285.07,38.508h1.245c0.901,0,1.397-0.457,1.397-1.286
		c0-0.83-0.496-1.287-1.397-1.287h-1.245V38.508z"/>
	<polygon fill="#8E908F" points="293.062,43.266 293.062,33.937 299.561,33.937 299.561,35.921 295.45,35.921 295.45,37.63 
		298.878,37.63 298.878,39.503 295.45,39.503 295.45,41.28 299.755,41.28 299.755,43.266 	"/>
	<polygon fill="#8E908F" points="89.57,32.85 90.017,30.819 92.088,30.819 91.029,32.85 	"/>
	<path fill="#8E908F" d="M180.529,38.522v4.746h-2.235v-9.462c0-0.083,0.042-0.151,0.192-0.028l5.956,4.917v-4.76h2.224v9.457
		c0,0.11-0.04,0.151-0.191,0.027L180.529,38.522z"/>
	<path fill="#8E908F" d="M133.129,38.523v4.747h-2.235v-9.462c0-0.083,0.042-0.152,0.192-0.028l5.957,4.917v-4.76h2.224v9.457
		c0,0.11-0.041,0.151-0.192,0.027L133.129,38.523z"/>
	<path fill="#8E908F" d="M53.821,33.834c0.015-0.097,0.069-0.083,0.124-0.015l4.475,5.023l4.405-5.023
		c0.055-0.068,0.11-0.083,0.125,0.015l0.548,9.429h-2.382l-0.219-4.055l-2.407,2.778c-0.042,0.041-0.083,0.041-0.124,0l-2.505-2.791
		l-0.219,4.068h-2.369L53.821,33.834z"/>
	<path fill="#8E908F" d="M145.72,33.769c-0.04-0.097-0.121-0.097-0.162,0l-4.498,9.497h2.345l0.462-1.126h3.368l0.487,1.126h2.481
		L145.72,33.769z M144.479,40.477l1.05-2.504l1.066,2.504H144.479z"/>
</g>
<path fill="#8E908F" d="M124.567,33.769c-0.041-0.097-0.122-0.097-0.162,0l-4.498,9.497h2.345l0.461-1.126h3.368l0.488,1.126h2.48
	L124.567,33.769z M123.327,40.477l1.05-2.504l1.067,2.504H123.327z"/>
<g>
	<path fill="#8E908F" d="M57.921,25.246c-2.725,0-4.859-2.104-4.859-4.789c0-2.677,2.073-4.776,4.719-4.776
		c1.773,0,3.081,0.636,3.994,1.942l-1.786,1.212c-0.332-0.49-0.918-1.099-2.166-1.099c-1.365,0-2.317,1.118-2.317,2.721
		c0,1.61,0.987,2.735,2.401,2.735c1.34,0,1.914-0.668,2.256-1.279l1.823,1.172C61.079,24.578,59.822,25.246,57.921,25.246z"/>
	<path fill="#8E908F" d="M95.786,25.109v-9.328h3.591c2.822,0,4.719,1.874,4.719,4.664c0,2.79-1.897,4.664-4.719,4.664H95.786z
		 M98.173,23.111h0.924c1.552,0,2.554-1.046,2.554-2.666c0-1.62-1.002-2.666-2.554-2.666h-0.924V23.111z"/>
	<rect x="106.672" y="15.782" fill="#8E908F" width="2.388" height="9.328"/>
	<path fill="#8E908F" d="M155.806,25.259c-2.523,0-4.032-1.395-4.032-3.73v-5.737h2.388v5.709c0,1.151,0.568,1.76,1.645,1.76
		c1.08,0,1.649-0.608,1.649-1.76v-5.709h2.388v5.737C159.843,23.865,158.334,25.259,155.806,25.259z"/>
	<path fill="#8E908F" d="M166.093,25.259c-2.174,0-3.317-1.018-3.825-1.667l1.723-1.292c0.397,0.479,0.981,1.003,1.991,1.003
		c0.845,0,1.271-0.278,1.271-0.827c0-0.461-0.36-0.671-0.984-0.878l-1.114-0.375c-1.55-0.517-2.304-1.43-2.304-2.787
		c0-1.903,1.586-2.755,3.159-2.755c1.709,0,2.644,0.629,3.132,1.178l-1.349,1.415c-0.453-0.443-0.977-0.65-1.643-0.65
		c-0.733,0-0.995,0.376-0.995,0.729c0,0.438,0.288,0.623,0.72,0.767l1.254,0.418c1.765,0.584,2.484,1.395,2.484,2.8
		C169.614,24.221,168.363,25.259,166.093,25.259z"/>
	<polygon fill="#8E908F" points="172.385,25.113 172.385,15.785 178.883,15.785 178.883,17.771 174.775,17.771 174.775,19.477 
		178.201,19.477 178.201,21.351 174.775,21.351 174.775,23.128 179.08,23.128 179.08,25.113 	"/>
	<path fill="#8E908F" d="M185.858,25.259c-2.527,0-4.037-1.395-4.037-3.73v-5.737h2.388v5.709c0,1.151,0.57,1.76,1.648,1.76
		c1.079,0,1.648-0.608,1.648-1.76v-5.709h2.389v5.737C189.896,23.865,188.386,25.259,185.858,25.259z"/>
	<path fill="#8E908F" d="M213.912,25.235c-2.811,0-5.012-2.104-5.012-4.789c0-2.677,2.202-4.775,5.012-4.775
		c2.81,0,5.012,2.098,5.012,4.775C218.924,23.131,216.722,25.235,213.912,25.235z M213.912,17.725c-1.536,0-2.568,1.093-2.568,2.721
		c0,1.636,1.032,2.735,2.568,2.735c1.537,0,2.568-1.099,2.568-2.735C216.48,18.818,215.449,17.725,213.912,17.725z"/>
	<polygon fill="#8E908F" points="221.39,25.109 221.39,15.781 227.678,15.781 227.678,17.768 223.777,17.768 223.777,19.836 
		227.219,19.836 227.219,21.821 223.777,21.821 223.777,25.109 	"/>
	<polygon fill="#8E908F" points="240.478,25.109 240.478,21.404 237.042,21.404 237.042,25.109 234.653,25.109 234.653,15.781 
		237.042,15.781 237.042,19.418 240.478,19.418 240.478,15.781 242.865,15.781 242.865,25.109 	"/>
	<rect x="246.18" y="15.781" fill="#8E908F" width="2.389" height="9.328"/>
	<path fill="#8E908F" d="M254.972,25.249c-2.174,0-3.317-1.018-3.826-1.667l1.724-1.292c0.396,0.479,0.98,1.003,1.99,1.003
		c0.845,0,1.272-0.278,1.272-0.827c0-0.46-0.361-0.671-0.983-0.878l-1.115-0.375c-1.551-0.518-2.304-1.43-2.304-2.787
		c0-1.903,1.586-2.754,3.158-2.754c1.709,0,2.644,0.628,3.133,1.178l-1.351,1.415c-0.452-0.443-0.975-0.649-1.643-0.649
		c-0.732,0-0.994,0.375-0.994,0.728c0,0.438,0.287,0.623,0.719,0.766l1.254,0.419c1.766,0.584,2.486,1.395,2.486,2.8
		C258.493,24.211,257.243,25.249,254.972,25.249z"/>
	<polygon fill="#8E908F" points="262.921,25.109 262.921,17.768 260.414,17.768 260.414,15.781 267.818,15.781 267.818,17.768 
		265.31,17.768 265.31,25.109 	"/>
	<path fill="#8E908F" d="M274.417,25.235c-2.811,0-5.011-2.104-5.011-4.789c0-2.677,2.201-4.775,5.011-4.775
		s5.012,2.098,5.012,4.775C279.428,23.131,277.227,25.235,274.417,25.235z M274.417,17.725c-1.536,0-2.568,1.093-2.568,2.721
		c0,1.636,1.032,2.735,2.568,2.735c1.536,0,2.568-1.099,2.568-2.735C276.985,18.818,275.953,17.725,274.417,17.725z"/>
	<path fill="#8E908F" d="M286.99,25.109l-1.671-2.967h-0.981v2.967h-2.389v-9.328h3.758c2.232,0,3.674,1.29,3.674,3.285
		c0,1.239-0.598,2.196-1.685,2.691l-0.074,0.034l1.941,3.318H286.99z M284.337,20.352h1.244c0.901,0,1.397-0.457,1.397-1.286
		c0-0.83-0.497-1.286-1.397-1.286h-1.244V20.352z"/>
	<polygon fill="#8E908F" points="294.312,25.109 294.312,21.519 291.021,15.781 293.637,15.781 295.548,19.334 297.458,15.781 
		299.949,15.781 296.709,21.412 296.701,25.109 	"/>
	<path fill="#8E908F" d="M124.975,20.367v4.747h-2.235v-9.461c0-0.083,0.042-0.152,0.192-0.028l5.957,4.917v-4.761h2.223v9.458
		c0,0.11-0.04,0.151-0.191,0.028L124.975,20.367z"/>
	<path fill="#8E908F" d="M76.663,20.367v4.747h-2.235v-9.461c0-0.083,0.042-0.152,0.192-0.028l5.957,4.917v-4.761H82.8v9.458
		c0,0.11-0.041,0.151-0.192,0.028L76.663,20.367z"/>
	<path fill="#8E908F" d="M139.313,15.685c0.015-0.097,0.069-0.083,0.125-0.015l4.475,5.024l4.405-5.024
		c0.055-0.069,0.109-0.083,0.124,0.015l0.548,9.428h-2.382l-0.219-4.054l-2.407,2.778c-0.042,0.041-0.082,0.041-0.124,0
		l-2.505-2.792l-0.22,4.067h-2.368L139.313,15.685z"/>
	<path fill="#8E908F" d="M193.218,15.685c0.014-0.097,0.069-0.083,0.124-0.015l4.475,5.024l4.405-5.024
		c0.055-0.069,0.11-0.083,0.125,0.015l0.548,9.428h-2.382l-0.219-4.054l-2.407,2.778c-0.042,0.041-0.083,0.041-0.125,0l-2.505-2.792
		l-0.219,4.067h-2.368L193.218,15.685z"/>
	<path fill="#8E908F" d="M68,15.617c-0.041-0.097-0.121-0.097-0.162,0l-4.498,9.497h2.345l0.462-1.125h3.368l0.488,1.125h2.48
		L68,15.617z M66.76,22.324l1.05-2.504l1.066,2.504H66.76z"/>
	<path fill="#8E908F" d="M89.32,15.617c-0.041-0.097-0.122-0.097-0.162,0l-4.498,9.497h2.345l0.461-1.125h3.368l0.488,1.125h2.48
		L89.32,15.617z M88.079,22.324l1.051-2.504l1.066,2.504H88.079z"/>
	<path fill="#8E908F" d="M116.081,15.617c-0.041-0.097-0.121-0.097-0.162,0l-4.498,9.497h2.345l0.462-1.125h3.368l0.487,1.125h2.48
		L116.081,15.617z M114.84,22.324l1.05-2.504l1.066,2.504H114.84z"/>
</g>
</svg>
