<svg xmlns="http://www.w3.org/2000/svg" width="300" height="43.504" viewBox="0 0 300 43.504"><path fill="#E1261C" d="M15.148 15.66c4.646 2.995 9.148 7.514 11.485 14.29v13.32h13.319v-43.27c-11.591 2.418-19.57 9.172-24.804 15.66z"/><path fill="#fff" d="M26.633 29.949h-13.32v13.318h-13.313v-33.282s20.58 2.412 26.633 19.964zm26.642-.844h2.423v1.375h-2.423zM70.237 43.407c-2.527 0-4.036-1.396-4.036-3.73v-5.737h2.388v5.709c0 1.15.57 1.76 1.648 1.76 1.079 0 1.649-.608 1.649-1.76v-5.709h2.388v5.736c0 2.336-1.509 3.731-4.037 3.731zm10.213 0c-2.173 0-3.317-1.019-3.825-1.668l1.723-1.292c.396.479.98 1.002 1.991 1.002.844 0 1.272-.277 1.272-.826 0-.459-.36-.67-.984-.878l-1.114-.377c-1.551-.517-2.305-1.427-2.305-2.785 0-1.903 1.586-2.755 3.159-2.755 1.708 0 2.643.629 3.133 1.178l-1.351 1.415c-.453-.442-.977-.649-1.643-.649-.732 0-.994.375-.994.729 0 .438.288.623.719.766l1.254.418c1.766.584 2.485 1.396 2.485 2.801.001 1.883-1.249 2.921-3.52 2.921zm6.302-.139v-9.328h6.498v1.984h-4.11v1.708h3.428v1.873h-3.428v1.777h4.305v1.983h-6.693v.003zm9.851 0v-9.329h6.498v1.985h-4.11v1.709h3.427v1.873h-3.427v1.777h4.305v1.985zm18.137.125c-2.725 0-4.859-2.104-4.859-4.789 0-2.678 2.073-4.774 4.72-4.774 1.773 0 3.081.636 3.994 1.94l-1.786 1.211c-.333-.489-.918-1.099-2.166-1.099-1.365 0-2.317 1.119-2.317 2.722 0 1.61.987 2.734 2.4 2.734 1.34 0 1.915-.668 2.256-1.277l1.824 1.172c-.908 1.494-2.166 2.16-4.066 2.16zm37.457-.125v-9.328h3.591c2.823 0 4.719 1.875 4.719 4.664 0 2.791-1.896 4.664-4.719 4.664h-3.591zm2.388-1.998h.923c1.553 0 2.555-1.047 2.555-2.666s-1.002-2.664-2.555-2.664h-.923v5.33zm8.591-7.331h2.389v9.328h-2.389zm5.573 9.329v-9.329h6.499v1.985h-4.111v1.709h3.429v1.873h-3.429v1.777h4.306v1.985zm24.792-.002v-9.328h3.591c2.823 0 4.72 1.875 4.72 4.664 0 2.791-1.896 4.664-4.72 4.664h-3.591zm2.388-1.998h.925c1.552 0 2.554-1.047 2.554-2.666s-1.002-2.666-2.554-2.666h-.925v5.332zm8.591 1.998v-9.328h6.5v1.983h-4.111v1.709h3.427v1.873h-3.427v1.777h4.304v1.986zm13.709 0v-9.328h2.388v7.342h4.028v1.986zm7.133-5.879l.469-1.33-.072-.023c-.438-.143-.712-.547-.712-1.055 0-.658.514-1.154 1.194-1.154.71 0 1.245.496 1.245 1.154 0 .412-.156.819-.49 1.289l-.792 1.121h-.842v-.002zm10.531 5.879v-3.707h-3.436v3.707h-2.389v-9.328h2.389v3.637h3.436v-3.637h2.389v9.328zm5.407-9.328h2.388v9.328h-2.388zm8.718 9.466c-2.176 0-3.317-1.019-3.826-1.668l1.724-1.291c.396.479.981 1.002 1.992 1.002.844 0 1.271-.277 1.271-.825 0-.461-.36-.671-.983-.878l-1.114-.376c-1.551-.519-2.306-1.429-2.306-2.787 0-1.903 1.588-2.755 3.16-2.755 1.709 0 2.644.629 3.131 1.178l-1.349 1.416c-.452-.443-.977-.65-1.643-.65-.733 0-.994.377-.994.729 0 .437.288.622.719.767l1.254.418c1.767.584 2.485 1.396 2.485 2.801 0 1.881-1.25 2.919-3.521 2.919zm7.877-.138v-7.345h-2.509v-1.983h7.404v1.983h-2.508v7.345zm11.419.125c-2.811 0-5.012-2.104-5.012-4.789 0-2.678 2.202-4.775 5.012-4.775 2.811 0 5.012 2.098 5.012 4.775.001 2.685-2.2 4.789-5.012 4.789zm0-7.511c-1.536 0-2.567 1.093-2.567 2.72 0 1.637 1.032 2.735 2.567 2.735 1.537 0 2.567-1.099 2.567-2.735.002-1.625-1.029-2.72-2.567-2.72zm7.738-1.942h2.388v9.328h-2.388zm10.671 9.328l-1.671-2.968h-.981v2.968h-2.389v-9.328h3.758c2.231 0 3.675 1.289 3.675 3.285 0 1.238-.599 2.194-1.685 2.69l-.074.034 1.941 3.318h-2.574v.001zm-2.653-4.758h1.244c.901 0 1.397-.457 1.397-1.285 0-.83-.496-1.287-1.397-1.287h-1.244v2.572zm7.992 4.758v-9.328h6.499v1.983h-4.111v1.709h3.428v1.873h-3.428v1.777h4.305v1.986zm-203.492-10.416l.447-2.032h2.071l-1.059 2.032zm90.959 5.671v4.746h-2.235v-9.461c0-.084.042-.151.192-.029l5.955 4.918v-4.76h2.225v9.457c0 .109-.04.15-.191.026l-5.946-4.897zm-47.4.002v4.746h-2.235v-9.461c0-.084.042-.152.192-.028l5.957 4.917v-4.76h2.224v9.457c0 .109-.041.15-.192.026l-5.946-4.897zm-79.308-4.689c.015-.098.069-.083.124-.016l4.475 5.023 4.405-5.023c.055-.067.11-.082.125.016l.548 9.43h-2.382l-.219-4.056-2.407 2.778c-.042.041-.083.041-.124 0l-2.505-2.791-.219 4.068h-2.369l.548-9.429zm91.899-.064c-.04-.098-.121-.098-.162 0l-4.498 9.496h2.345l.462-1.125h3.368l.487 1.125h2.481l-4.483-9.496zm-1.241 6.707l1.05-2.504 1.065 2.504h-2.115zM124.567 33.77c-.041-.098-.122-.098-.162 0l-4.498 9.496h2.345l.461-1.125h3.368l.488 1.125h2.48l-4.482-9.496zm-1.24 6.707l1.05-2.504 1.067 2.504h-2.117zM57.921 25.246c-2.725 0-4.859-2.104-4.859-4.789 0-2.677 2.073-4.776 4.719-4.776 1.773 0 3.081.636 3.994 1.942l-1.786 1.212c-.332-.49-.918-1.099-2.166-1.099-1.365 0-2.317 1.118-2.317 2.721 0 1.61.987 2.734 2.401 2.734 1.34 0 1.914-.668 2.256-1.278l1.823 1.172c-.907 1.493-2.164 2.161-4.065 2.161zm37.865-.137v-9.328h3.591c2.822 0 4.719 1.874 4.719 4.664s-1.897 4.665-4.719 4.665h-3.591zm2.387-1.998h.924c1.552 0 2.554-1.046 2.554-2.667 0-1.62-1.002-2.666-2.554-2.666h-.924v5.333zm8.499-7.329h2.388v9.327h-2.388zm49.135 9.477c-2.523 0-4.033-1.395-4.033-3.73v-5.737h2.389v5.709c0 1.151.568 1.76 1.645 1.76 1.08 0 1.649-.608 1.649-1.76v-5.709h2.388v5.737c-.002 2.336-1.511 3.73-4.038 3.73zm10.286 0c-2.174 0-3.317-1.018-3.825-1.667l1.724-1.292c.397.479.981 1.003 1.991 1.003.845 0 1.271-.277 1.271-.826 0-.461-.36-.671-.983-.878l-1.114-.375c-1.55-.517-2.304-1.43-2.304-2.787 0-1.903 1.586-2.755 3.158-2.755 1.709 0 2.645.629 3.133 1.178l-1.35 1.415c-.453-.443-.977-.65-1.643-.65-.733 0-.995.376-.995.729 0 .438.288.623.72.767l1.254.418c1.766.584 2.484 1.395 2.484 2.8 0 1.882-1.251 2.92-3.521 2.92zm6.292-.146v-9.328h6.498v1.986h-4.108v1.706h3.426v1.874h-3.426v1.777h4.305v1.985zm13.472.146c-2.526 0-4.036-1.395-4.036-3.73v-5.737h2.388v5.709c0 1.151.57 1.76 1.648 1.76s1.647-.608 1.647-1.76v-5.709h2.39v5.737c.002 2.336-1.508 3.73-4.037 3.73zm28.055-.025c-2.811 0-5.012-2.104-5.012-4.789 0-2.677 2.201-4.775 5.012-4.775s5.012 2.098 5.012 4.775c0 2.686-2.201 4.789-5.012 4.789zm0-7.509c-1.536 0-2.568 1.093-2.568 2.721 0 1.636 1.032 2.736 2.568 2.736 1.537 0 2.568-1.1 2.568-2.736 0-1.628-1.031-2.721-2.568-2.721zm7.479 7.384v-9.328h6.287v1.987h-3.901v2.068h3.442v1.985h-3.442v3.288zm19.088 0v-3.705h-3.437v3.705h-2.39v-9.328h2.39v3.637h3.437v-3.637h2.386v9.328zm5.701-9.328h2.389v9.328h-2.389zm8.793 9.468c-2.175 0-3.317-1.019-3.826-1.667l1.724-1.292c.396.479.979 1.003 1.989 1.003.846 0 1.272-.277 1.272-.827 0-.46-.36-.671-.983-.878l-1.114-.375c-1.552-.518-2.304-1.43-2.304-2.787 0-1.903 1.586-2.754 3.157-2.754 1.709 0 2.645.628 3.134 1.178l-1.352 1.415c-.452-.443-.975-.649-1.643-.649-.732 0-.994.375-.994.728 0 .438.287.623.719.766l1.254.419c1.766.584 2.486 1.395 2.486 2.8.001 1.882-1.249 2.92-3.519 2.92zm7.948-.14v-7.341h-2.507v-1.987h7.404v1.987h-2.507v7.341zm11.496.125c-2.812 0-5.011-2.104-5.011-4.789 0-2.677 2.201-4.775 5.011-4.775s5.012 2.098 5.012 4.775c-.001 2.686-2.202 4.789-5.012 4.789zm0-7.509c-1.536 0-2.567 1.093-2.567 2.721 0 1.636 1.031 2.736 2.567 2.736s2.567-1.1 2.567-2.736c0-1.628-1.031-2.721-2.567-2.721zm12.573 7.384l-1.672-2.967h-.98v2.967h-2.389v-9.328h3.758c2.232 0 3.674 1.29 3.674 3.285 0 1.239-.598 2.196-1.685 2.691l-.074.034 1.94 3.318h-2.572zm-2.653-4.757h1.244c.901 0 1.397-.457 1.397-1.286 0-.83-.498-1.286-1.397-1.286h-1.244v2.572zm9.975 4.757v-3.59l-3.291-5.738h2.616l1.911 3.553 1.91-3.553h2.491l-3.24 5.631-.008 3.697zm-169.337-4.742v4.747h-2.235v-9.461c0-.083.042-.152.192-.028l5.957 4.917v-4.761h2.223v9.458c0 .11-.04.151-.191.028l-5.946-4.9zm-48.312 0v4.747h-2.235v-9.461c0-.083.042-.152.192-.028l5.957 4.917v-4.761h2.223v9.458c0 .11-.041.151-.192.028l-5.945-4.9zm62.65-4.682c.015-.097.069-.083.125-.015l4.475 5.024 4.405-5.024c.055-.069.109-.083.124.015l.548 9.428h-2.382l-.219-4.054-2.407 2.778c-.042.041-.082.041-.124 0l-2.505-2.792-.22 4.066h-2.368l.548-9.426zm53.905 0c.015-.097.069-.083.124-.015l4.475 5.024 4.406-5.024c.055-.069.109-.083.125.015l.547 9.428h-2.382l-.219-4.054-2.407 2.778c-.042.041-.083.041-.125 0l-2.505-2.792-.219 4.066h-2.368l.548-9.426zm-125.218-.068c-.041-.097-.121-.097-.162 0l-4.498 9.497h2.345l.462-1.125h3.368l.488 1.125h2.48l-4.483-9.497zm-1.24 6.707l1.05-2.504 1.066 2.504h-2.116zm22.56-6.707c-.041-.097-.122-.097-.162 0l-4.498 9.497h2.345l.461-1.125h3.368l.488 1.125h2.479l-4.481-9.497zm-1.241 6.707l1.051-2.504 1.066 2.504h-2.117zm28.002-6.707c-.041-.097-.121-.097-.162 0l-4.498 9.497h2.345l.462-1.125h3.368l.487 1.125h2.48l-4.482-9.497zm-1.241 6.707l1.05-2.504 1.066 2.504h-2.116z"/></svg>