<svg width="13" height="13" viewBox="0 0 13 13" xmlns="http://www.w3.org/2000/svg"><title>Combined Shape</title><desc>Created with Sketch.</desc><path d="M3.154 2.905c-1.259 1.139-1.792 2.873-1.392 4.524.038.158-.059.317-.217.356l-.07.008c-.133 0-.253-.09-.286-.225-.451-1.862.15-3.816 1.569-5.1 1.945-1.759 4.864-1.776 6.826-.149l-.051-1.358c-.006-.163.121-.299.283-.305.162-.006.299.121.305.283l.079 2.084v.020999999999999998c.006.163-.121.299-.283.305l-2.105.079h-.011c-.158 0-.288-.125-.294-.284-.006-.163.121-.299.283-.305l1.434-.053c-1.741-1.457-4.34-1.446-6.07.119zm8.259 2.346c.451 1.862-.15 3.816-1.569 5.1-.996.901-2.248 1.345-3.496 1.345-1.185 0-2.366-.401-3.321-1.19l.12 1.335c.014.162-.105.305-.267.32l-.027.001c-.151 0-.279-.115-.293-.268l-.188-2.098c-.014-.162.105-.305.267-.32l2.098-.188c.163-.014.305.105.32.267.014.162-.105.305-.267.32l-1.445.129c.857.732 1.929 1.103 3.003 1.103 1.107 0 2.218-.394 3.101-1.193 1.259-1.139 1.792-2.873 1.392-4.524-.038-.158.059-.317.217-.356.158-.038.317.059.356.217z" fill="#fff" stroke="#fff"/></svg>