<svg xmlns="http://www.w3.org/2000/svg" width="300" height="44" viewBox="0 0 300 44"><path d="M70.249 25.505c-2.528 0-4.037-1.396-4.037-3.731v-5.738h2.389v5.709c0 1.151.57 1.76 1.648 1.76 1.079 0 1.649-.606 1.649-1.76v-5.709h2.388v5.738c.001 2.335-1.509 3.731-4.037 3.731zm10.215 0c-2.174 0-3.318-1.019-3.826-1.668l1.723-1.293c.396.479.98 1.004 1.991 1.004.844 0 1.272-.278 1.272-.825 0-.46-.361-.672-.984-.88l-1.114-.376c-1.552-.517-2.305-1.428-2.305-2.786 0-1.903 1.587-2.756 3.159-2.756 1.709 0 2.643.629 3.133 1.179l-1.351 1.415c-.453-.443-.977-.65-1.644-.65-.732 0-.994.377-.994.729 0 .437.288.623.719.766l1.254.418c1.766.585 2.486 1.396 2.486 2.802.002 1.882-1.248 2.921-3.519 2.921zm6.303-.139v-9.33h6.5v1.985h-4.111v1.708h3.429v1.873h-3.429v1.778h4.306v1.985l-6.695.001zm9.852 0v-9.33h6.5v1.985h-4.111v1.708h3.428v1.874h-3.428v1.777h4.306v1.986zm18.14.126c-2.725 0-4.86-2.104-4.86-4.791 0-2.678 2.074-4.776 4.721-4.776 1.774 0 3.082.636 3.994 1.941l-1.786 1.212c-.333-.49-.918-1.099-2.167-1.099-1.365 0-2.318 1.12-2.318 2.722 0 1.611.987 2.734 2.401 2.734 1.341 0 1.915-.668 2.257-1.277l1.824 1.172c-.907 1.494-2.165 2.162-4.066 2.162zm37.464-.126v-9.33h3.592c2.824 0 4.721 1.875 4.721 4.665 0 2.791-1.896 4.665-4.721 4.665h-3.592zm2.388-1.999h.924c1.553 0 2.555-1.046 2.555-2.666 0-1.619-1.002-2.666-2.555-2.666h-.924v5.332zm8.594-7.331h2.389v9.33h-2.389zm5.572 9.33v-9.33h6.5v1.985h-4.11v1.708h3.429v1.874h-3.429v1.777h4.306v1.986zm24.797-.002v-9.331h3.592c2.822 0 4.721 1.875 4.721 4.665s-1.896 4.666-4.721 4.666h-3.592zm2.388-1.999h.925c1.553 0 2.555-1.047 2.555-2.667 0-1.619-1.002-2.666-2.555-2.666h-.925v5.333zm8.593 1.999v-9.331h6.5v1.985h-4.112v1.709h3.43v1.873h-3.43v1.778h4.307v1.986zm13.713 0v-9.331h2.386v7.345h4.028v1.986zm7.132-5.88l.471-1.331-.072-.023c-.439-.143-.713-.547-.713-1.055 0-.658.514-1.155 1.193-1.155.711 0 1.246.497 1.246 1.155 0 .411-.156.82-.49 1.289l-.793 1.12h-.842zm10.534 5.88v-3.709h-3.438v3.709h-2.389v-9.331h2.389v3.638h3.438v-3.638h2.388v9.331zm5.407-9.331h2.388v9.331h-2.388zm8.72 9.468c-2.177 0-3.318-1.019-3.826-1.667l1.724-1.292c.396.479.981 1.002 1.991 1.002.845 0 1.273-.276 1.273-.823 0-.463-.361-.673-.984-.88l-1.115-.376c-1.551-.518-2.305-1.43-2.305-2.787 0-1.904 1.586-2.756 3.16-2.756 1.707 0 2.643.629 3.131 1.178l-1.35 1.416c-.453-.443-.978-.65-1.644-.65-.733 0-.994.376-.994.728 0 .438.287.622.719.766l1.255.418c1.766.584 2.485 1.396 2.485 2.801.001 1.885-1.249 2.922-3.52 2.922zm7.877-.137v-7.346h-2.508v-1.985h7.405v1.985h-2.509v7.346zm11.423.125c-2.812 0-5.014-2.104-5.014-4.791 0-2.678 2.202-4.776 5.014-4.776s5.013 2.099 5.013 4.776c0 2.686-2.202 4.791-5.013 4.791zm0-7.512c-1.536 0-2.568 1.093-2.568 2.721 0 1.638 1.032 2.735 2.568 2.735 1.537 0 2.568-1.099 2.568-2.735.001-1.628-1.031-2.721-2.568-2.721zm7.739-1.944h2.389v9.331h-2.389zm10.671 9.331l-1.672-2.969h-.98v2.969h-2.389v-9.331h3.759c2.231 0 3.675 1.29 3.675 3.286 0 1.239-.6 2.195-1.686 2.691l-.074.034 1.941 3.32h-2.574zm-2.652-4.76h1.244c.902 0 1.397-.457 1.397-1.286 0-.83-.495-1.287-1.397-1.287h-1.244v2.573zm7.992 4.76v-9.331h6.5v1.985h-4.111v1.709h3.43v1.873h-3.43v1.778h4.307v1.986zm-203.526-10.419l.447-2.03h2.072l-1.059 2.03zm90.976 5.674v4.748h-2.235v-9.464c0-.083.042-.151.192-.028l5.957 4.919v-4.761h2.224v9.459c0 .109-.04.15-.191.027l-5.947-4.9zm-47.409 0v4.748h-2.236v-9.463c0-.083.042-.152.192-.028l5.958 4.918v-4.761h2.224v9.459c0 .109-.041.152-.192.027l-5.946-4.9zm-79.321-4.689c.015-.097.069-.083.124-.014l4.476 5.024 4.406-5.024c.055-.069.11-.083.125.014l.548 9.431h-2.383l-.219-4.055-2.408 2.779c-.042.041-.083.041-.124 0l-2.505-2.793-.219 4.069h-2.369l.548-9.431zm91.914-.065c-.04-.097-.121-.097-.162 0l-4.499 9.499h2.345l.462-1.126h3.369l.487 1.126h2.481l-4.483-9.499zm-1.241 6.709l1.05-2.505 1.066 2.505h-2.116zM57.931 43.652c-2.725 0-4.859-2.104-4.859-4.789 0-2.678 2.073-4.776 4.72-4.776 1.774 0 3.082.636 3.995 1.942l-1.787 1.212c-.332-.49-.918-1.099-2.167-1.099-1.365 0-2.317 1.117-2.317 2.721 0 1.609.987 2.736 2.401 2.736 1.34 0 1.914-.67 2.256-1.279l1.824 1.172c-.908 1.494-2.165 2.16-4.066 2.16zm37.871-.134v-9.33h3.592c2.823 0 4.72 1.875 4.72 4.666 0 2.789-1.897 4.664-4.72 4.664h-3.592zm2.388-2h.924c1.552 0 2.555-1.045 2.555-2.664 0-1.621-1.003-2.668-2.555-2.668h-.924v5.332zm8.5-7.33h2.389v9.33h-2.389zm49.143 9.479c-2.524 0-4.033-1.396-4.033-3.731v-5.736h2.388v5.71c0 1.151.567 1.76 1.646 1.76s1.648-.606 1.648-1.76v-5.71h2.389v5.736c0 2.335-1.51 3.731-4.038 3.731zm10.289 0c-2.175 0-3.317-1.019-3.825-1.667l1.723-1.293c.396.479.981 1.004 1.992 1.004.844 0 1.271-.279 1.271-.827 0-.461-.36-.671-.984-.878l-1.114-.377c-1.551-.518-2.305-1.43-2.305-2.787 0-1.902 1.588-2.755 3.16-2.755 1.709 0 2.645.63 3.133 1.179l-1.35 1.414c-.453-.441-.977-.65-1.645-.65-.732 0-.994.378-.994.729 0 .438.287.623.721.767l1.254.418c1.766.584 2.484 1.396 2.484 2.802 0 1.882-1.25 2.921-3.521 2.921zm6.292-.147v-9.329h6.5v1.986h-4.109v1.707h3.427v1.873h-3.427v1.778h4.306v1.985zm13.477.147c-2.527 0-4.037-1.396-4.037-3.731v-5.736h2.389v5.71c0 1.151.57 1.76 1.648 1.76s1.647-.606 1.647-1.76v-5.71h2.389v5.736c0 2.335-1.509 3.731-4.036 3.731zm28.058-.024c-2.811 0-5.014-2.104-5.014-4.789 0-2.679 2.203-4.777 5.014-4.777s5.013 2.1 5.013 4.777c-.001 2.685-2.203 4.789-5.013 4.789zm0-7.513c-1.536 0-2.568 1.095-2.568 2.724 0 1.636 1.032 2.733 2.568 2.733 1.537 0 2.568-1.099 2.568-2.733.001-1.629-1.031-2.724-2.568-2.724zm7.478 7.388v-9.33h6.29v1.985h-3.901v2.07h3.441v1.986h-3.441v3.289zm19.093 0v-3.707h-3.438v3.707h-2.389v-9.33h2.389v3.637h3.438v-3.637h2.387v9.33zm5.703-9.33h2.389v9.33h-2.389zm8.793 9.468c-2.175 0-3.318-1.018-3.826-1.668l1.725-1.293c.396.479.98 1.004 1.99 1.004.845 0 1.272-.277 1.272-.826 0-.461-.36-.671-.983-.878l-1.115-.376c-1.551-.518-2.305-1.43-2.305-2.787 0-1.902 1.586-2.756 3.158-2.756 1.709 0 2.645.629 3.133 1.179l-1.351 1.415c-.45-.443-.976-.65-1.644-.65-.731 0-.993.377-.993.729 0 .438.286.623.719.769l1.255.418c1.766.584 2.485 1.395 2.485 2.801.001 1.881-1.249 2.919-3.52 2.919zm7.95-.138v-7.345h-2.508v-1.985h7.406v1.985h-2.509v7.345zm11.497.125c-2.812 0-5.013-2.104-5.013-4.789 0-2.679 2.2-4.777 5.013-4.777s5.014 2.1 5.014 4.777c0 2.685-2.202 4.789-5.014 4.789zm0-7.513c-1.536 0-2.568 1.095-2.568 2.724 0 1.636 1.033 2.733 2.568 2.733 1.536 0 2.569-1.099 2.569-2.733.001-1.629-1.032-2.724-2.569-2.724zm12.576 7.388l-1.671-2.97h-.981v2.97h-2.39v-9.33h3.759c2.232 0 3.676 1.289 3.676 3.285 0 1.239-.6 2.195-1.686 2.69l-.074.035 1.941 3.317h-2.574v.003zm-2.653-4.76h1.244c.899 0 1.396-.456 1.396-1.285 0-.83-.496-1.287-1.396-1.287h-1.244v2.572zm9.977 4.76v-3.593l-3.293-5.737h2.618l1.91 3.552 1.911-3.552h2.491l-3.241 5.63-.008 3.7zm-169.367-4.745v4.748h-2.236v-9.463c0-.084.042-.152.192-.029l5.958 4.919v-4.761h2.224v9.459c0 .108-.04.149-.191.026l-5.947-4.899zm-48.32 0v4.748h-2.235v-9.463c0-.084.042-.152.192-.029l5.958 4.919v-4.761h2.224v9.459c0 .108-.041.149-.192.026l-5.947-4.899zm62.661-4.683c.015-.097.069-.083.125-.015l4.475 5.024 4.406-5.024c.055-.068.109-.082.124.015l.548 9.432h-2.383l-.219-4.056-2.407 2.778c-.042.041-.082.041-.124 0l-2.505-2.792-.22 4.067h-2.368l.548-9.429zm53.914 0c.015-.097.069-.083.124-.015l4.477 5.024 4.405-5.024c.056-.068.109-.082.124.015l.549 9.432h-2.384l-.219-4.056-2.407 2.778c-.042.041-.083.041-.124 0l-2.506-2.792-.22 4.067h-2.368l.549-9.429zm-125.239-.067c-.041-.099-.121-.099-.162 0l-4.499 9.498h2.345l.462-1.127h3.368l.488 1.127h2.48l-4.482-9.498zm-1.241 6.707l1.051-2.504 1.066 2.504h-2.117zm22.564-6.707c-.041-.099-.122-.099-.162 0l-4.499 9.498h2.345l.461-1.127h3.369l.488 1.127h2.481l-4.483-9.498zm-1.241 6.707l1.051-2.504 1.066 2.504h-2.117zm28.007-6.707c-.041-.099-.121-.099-.162 0l-4.499 9.498h2.345l.462-1.127h3.369l.487 1.127h2.481l-4.483-9.498zm-1.241 6.707l1.051-2.504 1.066 2.504h-2.117z" fill="#fff"/><path fill="#E1261C" d="M15.15 15.913c4.647 2.996 9.15 7.517 11.487 14.292v13.32h13.321v-43.274c-11.592 2.418-19.572 9.173-24.808 15.662z"/><path fill="#fff" d="M26.637 30.206h-13.322v13.321h-13.315v-33.29c0 .001 20.583 2.413 26.637 19.969zm26.648-.843h2.423v1.375h-2.423zm71.304-13.498c-.041-.097-.122-.097-.162 0l-4.499 9.499h2.346l.461-1.126h3.369l.488 1.126h2.481l-4.484-9.499zm-1.241 6.709l1.05-2.505 1.067 2.505h-2.117z"/></svg>